<svg width="21" height="20" viewBox="0 0 21 20" fill="none" xmlns="http://www.w3.org/2000/svg">
<path d="M19.11 6.30987C19.0986 4.51356 18.2976 3.15053 16.7479 2.2432C16.066 1.84374 15.3123 1.67092 14.522 1.67051C12.027 1.66847 9.53206 1.66236 7.03711 1.67214C5.00642 1.67989 3.30996 2.91941 2.66758 4.85513C2.57301 5.14045 2.53837 5.44616 2.47641 5.74249C2.46541 5.79507 2.45644 5.84806 2.44666 5.90064V14.1025C2.49149 14.3519 2.51595 14.6071 2.58402 14.85C3.10086 16.6948 4.29963 17.828 6.1685 18.2503C6.33603 18.2882 6.50844 18.3061 6.67841 18.3334H14.8819C15.1317 18.2886 15.3869 18.2641 15.6302 18.1961C17.473 17.68 18.6094 16.4833 19.0252 14.6165C19.092 14.3177 19.1092 14.003 19.11 13.6957C19.1165 11.2337 19.1255 8.77181 19.11 6.30987ZM10.7875 14.5688C8.27826 14.583 6.21089 12.5189 6.21211 10.0007C6.21334 7.485 8.24688 5.4486 10.7728 5.43434C13.282 5.42007 15.3494 7.48378 15.3482 10.002C15.347 12.5177 13.3134 14.5541 10.7875 14.5688ZM15.6237 6.54669C14.8696 6.54425 14.2354 5.9092 14.2358 5.15676C14.2358 4.40187 14.868 3.77253 15.6258 3.77335C16.3876 3.77375 17.0116 4.39861 17.0096 5.1592C17.0079 5.91735 16.377 6.54914 15.6237 6.54669Z" fill="#555555"/>
<path d="M2.44666 14.1028C2.49149 14.3522 2.51595 14.6074 2.58402 14.8503C3.10086 16.6952 4.29963 17.8283 6.1685 18.2506C6.33602 18.2885 6.50844 18.3064 6.67841 18.3337C5.26769 18.3337 3.85697 18.3337 2.44666 18.3337C2.44666 16.9234 2.44666 15.5131 2.44666 14.1028Z" fill="white"/>
<path d="M14.3638 10.0094C14.3572 11.9912 12.7399 13.5975 10.7646 13.5845C8.78609 13.5714 7.18991 11.9655 7.19643 9.99389C7.20295 8.01252 8.82074 6.40533 10.796 6.41878C12.7745 6.43183 14.3703 8.03779 14.3638 10.0094Z" fill="#555555"/>
<path d="M16.0248 5.15567C16.0256 5.37496 15.8401 5.56164 15.6233 5.56042C15.4085 5.5592 15.2189 5.36599 15.2222 5.15159C15.2259 4.94086 15.4069 4.7607 15.6188 4.75785C15.841 4.75499 16.024 4.93434 16.0248 5.15567Z" fill="#555555"/>
</svg>
