<svg width="21" height="20" viewBox="0 0 21 20" fill="none" xmlns="http://www.w3.org/2000/svg">
<path d="M17.2168 7.27967C17.2215 8.55331 16.992 9.78308 16.4298 10.9339C15.819 12.1832 14.9138 13.143 13.5882 13.6283C12.5785 13.9988 11.5465 14.09 10.5368 13.6067C10.2708 13.4798 10.0299 13.3016 9.76529 13.139C9.67957 13.4683 9.58575 13.8099 9.50273 14.1541C9.2773 15.0929 9.00596 16.0163 8.58749 16.891C8.38096 17.3223 8.1589 17.7448 7.80252 18.0762C7.7357 18.1383 7.65943 18.1923 7.58046 18.2396C7.27741 18.4198 6.97638 18.3361 6.81236 18.0256C6.64565 17.7097 6.61325 17.3642 6.6038 17.0159C6.57275 15.8239 6.78941 14.6657 7.07222 13.5142C7.39147 12.2156 7.6925 10.9116 7.99556 9.60894C8.01581 9.5212 8.00568 9.41658 7.97801 9.32951C7.64863 8.2894 7.62298 7.26955 8.19062 6.29761C8.50312 5.76305 8.95264 5.40127 9.58373 5.30205C10.474 5.16166 11.2596 5.80355 11.3251 6.70259C11.373 7.35257 11.1894 7.958 11.0187 8.56816C10.8601 9.13107 10.688 9.68994 10.53 10.2528C10.4423 10.5654 10.4504 10.8772 10.6171 11.1667C10.9012 11.6581 11.3562 11.8181 11.8887 11.7701C12.5137 11.7148 12.9706 11.3571 13.3385 10.8758C13.8089 10.2603 14.0695 9.55157 14.2261 8.8017C14.384 8.04372 14.467 7.279 14.355 6.50752C14.1748 5.26223 13.4796 4.41786 12.2903 4.03179C11.0902 3.64234 9.89083 3.69769 8.74881 4.26532C7.56494 4.85321 6.86501 5.83324 6.5768 7.10958C6.43101 7.75821 6.40401 8.41427 6.6713 9.04333C6.76511 9.26404 6.90281 9.47193 7.04927 9.66429C7.22408 9.8931 7.29495 10.1273 7.21733 10.4074C7.15186 10.6423 7.09989 10.8806 7.0324 11.1148C6.90011 11.5778 6.56938 11.7296 6.13201 11.5346C5.26402 11.1478 4.72405 10.4628 4.42505 9.58734C3.93773 8.16251 4.02277 6.75253 4.67343 5.3979C5.62984 3.40813 7.25041 2.26881 9.38799 1.83009C9.72074 1.76192 10.0636 1.73897 10.4018 1.69375C10.4382 1.68902 10.474 1.6762 10.5098 1.66675H11.4216C11.6039 1.68835 11.7861 1.70792 11.9683 1.73222C13.5214 1.93471 14.8544 2.57591 15.8871 3.76788C16.7551 4.77019 17.2127 5.94596 17.2168 7.27967Z" fill="#FF782D"/>
</svg>
