<svg width="21" height="20" viewBox="0 0 21 20" fill="none" xmlns="http://www.w3.org/2000/svg">
<path d="M17.766 16.9615C15.9105 14.2541 14.0534 11.5476 12.197 8.84069C12.1728 8.80542 12.1506 8.76871 12.1203 8.72187C12.4455 8.34282 12.769 7.9654 13.0929 7.58815C14.7762 5.62761 16.4597 3.66689 18.143 1.70617C18.1535 1.69387 18.1618 1.67995 18.1712 1.66675H16.7417C14.9945 3.70125 13.2472 5.73594 11.4722 7.80282C11.4509 7.7643 11.4357 7.7312 11.4154 7.70172C10.0524 5.71351 8.689 3.72567 7.32597 1.73746C7.31096 1.7154 7.30029 1.69044 7.28745 1.66675H2.44659C2.48855 1.73547 2.52725 1.80636 2.57264 1.87255C4.61854 4.85685 6.66498 7.84079 8.71142 10.8249C8.73276 10.856 8.7532 10.8878 8.78304 10.9329C8.61684 11.1278 8.44974 11.3248 8.28137 11.5208C6.37889 13.7363 4.47622 15.9517 2.57391 18.1674C2.5287 18.2202 2.48891 18.2779 2.44659 18.3334H3.87617C4.5236 17.5759 5.16976 16.8172 5.81845 16.0607C6.9717 14.7158 8.12657 13.3719 9.28072 12.0279C9.32286 11.9787 9.36626 11.9308 9.41654 11.8735C9.44909 11.9129 9.47803 11.9433 9.50154 11.9774C10.9324 14.0635 12.3629 16.1497 13.7932 18.2363C13.8143 18.2672 13.8313 18.301 13.8503 18.3334H18.691C18.3828 17.8761 18.0777 17.4165 17.766 16.9615ZM16.5476 17.2974C15.9306 17.2979 15.3135 17.2946 14.6965 17.3004C14.5816 17.3013 14.5109 17.2686 14.4438 17.1726C11.1297 12.4178 7.81281 7.66465 4.49647 2.91132C4.46591 2.86756 4.43806 2.8218 4.38923 2.74693C4.99452 2.74693 5.56816 2.76972 6.1389 2.73825C6.47654 2.71963 6.66263 2.83844 6.85378 3.11369C10.0922 7.77605 13.3434 12.4296 16.5917 17.085C16.6339 17.1454 16.6746 17.2068 16.7299 17.2878C16.6505 17.2921 16.5992 17.2972 16.5476 17.2974Z" fill="#555555"/>
</svg>
