<svg width="21" height="20" viewBox="0 0 21 20" fill="none" xmlns="http://www.w3.org/2000/svg">
<path d="M19.6485 5.72938C19.448 4.62192 18.7712 3.91099 17.713 3.71745C17.2763 3.63728 16.8317 3.57887 16.3882 3.55883C14.5074 3.47379 12.6257 3.40708 10.7443 3.3335C10.7438 3.35297 10.7432 3.37244 10.7426 3.3919C10.31 3.3919 9.87709 3.38561 9.44476 3.39305C7.65099 3.42311 5.85694 3.44287 4.07262 3.66562C2.96286 3.80391 2.1941 4.46387 1.96305 5.56103C1.83392 6.17375 1.76348 6.80192 1.71252 7.42695C1.60343 8.76375 1.57652 10.1049 1.67158 11.4437C1.73056 12.2717 1.80615 13.1023 1.94386 13.9203C2.12453 14.9917 2.86294 15.7 3.90255 15.8544C4.51813 15.9457 5.13972 16.0236 5.76102 16.0439C7.66817 16.1057 9.57646 16.163 11.4845 16.1725C13.3865 16.1822 15.2893 16.137 17.1839 15.938C17.6723 15.8864 18.1536 15.8085 18.5805 15.5351C19.2866 15.083 19.6078 14.4036 19.6848 13.6056C19.7888 12.5259 19.8941 11.4437 19.9296 10.3605C19.9809 8.81071 19.9253 7.26146 19.6485 5.72938ZM8.96718 12.5185V7.04558C10.5557 7.95864 12.1275 8.86225 13.7272 9.78189C12.1298 10.7004 10.5582 11.6037 8.96718 12.5185Z" fill="#555555"/>
</svg>
