<svg width="33" height="33" viewBox="0 0 33 33" fill="none" xmlns="http://www.w3.org/2000/svg">
<g clip-path="url(#clip0_967_218)">
<path d="M27.2427 22.9L27.376 23.0334C27.6787 23.3386 28.0537 23.5624 28.466 23.6839C28.8784 23.8053 29.3148 23.8205 29.7347 23.728C30.1477 23.6413 30.5323 23.4522 30.8532 23.1779C31.174 22.9037 31.4207 22.5532 31.5707 22.1587C32.3068 20.2258 32.6587 18.1677 32.6067 16.1C32.4566 12.0387 30.7861 8.182 27.9264 5.29433C25.0666 2.40667 21.2263 0.698842 17.1667 0.509359C15.02 0.434716 12.8802 0.793079 10.875 1.56308C8.86979 2.33308 7.04014 3.49896 5.49514 4.9912C3.95014 6.48345 2.72143 8.27151 1.88225 10.2488C1.04307 12.226 0.610612 14.352 0.610657 16.5C0.615597 20.742 2.30289 24.8088 5.3024 27.8083C8.30192 30.8078 12.3687 32.4951 16.6107 32.5C17.0613 32.5 17.504 32.4707 17.944 32.4334C18.2779 32.4052 18.5889 32.2524 18.8152 32.0053C19.0415 31.7583 19.1665 31.4351 19.1653 31.1L19.1227 26.316C19.1119 25.3707 19.3831 24.4435 19.9016 23.653C20.4202 22.8625 21.1626 22.2445 22.0341 21.8778C22.9056 21.5112 23.8665 21.4127 24.7942 21.5947C25.722 21.7768 26.5744 22.2312 27.2427 22.9ZM23.32 11.2334C23.7023 11.1319 24.1061 11.1461 24.4803 11.2741C24.8546 11.4022 25.1824 11.6383 25.4225 11.9527C25.6625 12.267 25.804 12.6455 25.8289 13.0403C25.8539 13.435 25.7613 13.8283 25.5627 14.1704C25.3642 14.5125 25.0686 14.788 24.7135 14.9622C24.3584 15.1363 23.9596 15.2013 23.5675 15.1488C23.1755 15.0963 22.8078 14.9287 22.511 14.6673C22.2142 14.4059 22.0016 14.0623 21.9 13.68C21.8325 13.4261 21.8158 13.1614 21.8506 12.9011C21.8855 12.6407 21.9713 12.3897 22.1032 12.1625C22.235 11.9353 22.4104 11.7363 22.6191 11.5769C22.8279 11.4175 23.0661 11.3007 23.32 11.2334ZM11.0133 23.1C10.631 23.2015 10.2272 23.1873 9.85298 23.0592C9.47874 22.9312 9.15087 22.6951 8.91082 22.3807C8.67077 22.0663 8.52933 21.6879 8.50437 21.2931C8.47941 20.8984 8.57206 20.5051 8.77061 20.163C8.96915 19.8209 9.26468 19.5454 9.61981 19.3712C9.97494 19.1971 10.3737 19.1321 10.7658 19.1846C11.1578 19.2371 11.5255 19.4046 11.8223 19.6661C12.1191 19.9275 12.3318 20.2711 12.4333 20.6534C12.5008 20.9072 12.5176 21.1719 12.4827 21.4323C12.4478 21.6927 12.362 21.9436 12.2302 22.1709C12.0983 22.3981 11.923 22.5971 11.7142 22.7565C11.5054 22.9159 11.2672 23.0327 11.0133 23.1ZM11.0133 15.1C10.631 15.2015 10.2272 15.1873 9.85298 15.0592C9.47874 14.9312 9.15087 14.6951 8.91082 14.3807C8.67077 14.0663 8.52933 13.6879 8.50437 13.2931C8.47941 12.8984 8.57206 12.5051 8.77061 12.163C8.96915 11.8209 9.26468 11.5454 9.61981 11.3712C9.97494 11.1971 10.3737 11.1321 10.7658 11.1846C11.1578 11.2371 11.5255 11.4046 11.8223 11.6661C12.1191 11.9275 12.3318 12.2711 12.4333 12.6534C12.5008 12.9072 12.5176 13.1719 12.4827 13.4323C12.4478 13.6927 12.362 13.9436 12.2302 14.1709C12.0983 14.3981 11.923 14.5971 11.7142 14.7565C11.5054 14.9159 11.2672 15.0327 11.0133 15.1ZM17.68 11.1C17.2977 11.2015 16.8939 11.1873 16.5196 11.0592C16.1454 10.9312 15.8175 10.6951 15.5775 10.3807C15.3374 10.0663 15.196 9.68786 15.171 9.29312C15.1461 8.89837 15.2387 8.50508 15.4373 8.16299C15.6358 7.8209 15.9313 7.54536 16.2865 7.37121C16.6416 7.19706 17.0404 7.13212 17.4324 7.18461C17.8245 7.23709 18.1922 7.40465 18.489 7.66608C18.7858 7.92751 18.9984 8.27109 19.1 8.65336C19.1674 8.90725 19.1842 9.17194 19.1494 9.43231C19.1145 9.69269 19.0287 9.94365 18.8968 10.1709C18.765 10.3981 18.5896 10.5971 18.3808 10.7565C18.1721 10.9159 17.9339 11.0327 17.68 11.1Z" fill="#FF782D"/>
</g>
<defs>
<clipPath id="clip0_967_218">
<rect width="32" height="32" fill="white" transform="translate(0.5 0.5)"/>
</clipPath>
</defs>
</svg>
