<svg width="33" height="33" viewBox="0 0 33 33" fill="none" xmlns="http://www.w3.org/2000/svg">
<path d="M28.4383 6.46583C28.4366 6.22916 28.3991 5.98833 28.3416 5.75833C27.9591 4.21166 26.6816 3.22916 25.0291 3.22166C23.0433 3.21333 21.0583 3.21999 19.0724 3.21999C14.6958 3.21999 10.3199 3.21583 5.94327 3.22166C3.93661 3.22416 2.49327 4.64333 2.49161 6.61499C2.48661 12.5625 2.48827 18.51 2.49411 24.4575C2.49411 24.735 2.52411 25.02 2.58994 25.2892C2.95911 26.8108 4.23161 27.8267 5.83327 27.8325C9.64827 27.8475 13.4633 27.8375 17.2791 27.8375C17.3399 27.8375 17.4016 27.8283 17.5116 27.82C17.5116 27.715 17.5174 27.6333 17.5108 27.5533C17.4274 26.5192 17.7283 25.5992 18.2541 24.7117C19.5024 22.6025 20.7058 20.4667 21.9433 18.3508C22.2608 17.8067 22.5749 17.2783 22.4608 16.6125C22.4583 16.5958 22.4749 16.5758 22.4966 16.5233C22.9941 16.685 23.1299 16.2892 23.3149 15.9617C23.3608 15.8808 23.4074 15.8 23.4541 15.7183C23.6741 15.335 23.8941 14.9525 24.1433 14.52H22.4791V10.5517H26.4366C26.4449 10.7133 26.4516 10.8608 26.4583 10.99C26.7891 10.8683 27.0899 10.7183 27.4083 10.6517C27.7366 10.5833 28.0808 10.5975 28.4349 10.5742C28.4383 10.5275 28.4441 10.4775 28.4441 10.4275C28.4441 9.10666 28.4474 7.78583 28.4383 6.46583ZM8.45494 25.8208C7.48494 25.8208 6.52077 25.8533 5.56077 25.8083C5.01911 25.7825 4.53744 25.2542 4.50577 24.6933C4.46577 23.9817 4.49577 23.265 4.49577 22.5233H8.45494V25.8208ZM8.45661 20.5008H4.50411V16.5425H8.45661V20.5008ZM8.46327 14.5058H4.50827V10.5508H8.46327V14.5058ZM8.46327 8.52249H4.48661V7.86083C4.48661 7.41416 4.47911 6.96749 4.48911 6.52083C4.50244 5.88749 4.95827 5.28333 5.55827 5.25083C6.51911 5.19916 7.48411 5.23666 8.46327 5.23666V8.52249ZM19.0166 17.085C17.6841 17.8492 16.3558 18.6192 15.0249 19.3875C14.6658 19.595 14.3066 19.8042 13.9466 20.01C12.8541 20.6342 11.8024 20.0317 11.7983 18.7783C11.7949 17.8017 11.7974 16.825 11.7974 15.8475C11.7974 14.8817 11.7958 13.915 11.7983 12.9483C11.8016 11.6892 12.8533 11.085 13.9433 11.7133C15.6424 12.6933 17.3408 13.6758 19.0408 14.6542C19.4966 14.9167 19.7766 15.2883 19.7874 15.8292C19.7983 16.41 19.5058 16.8042 19.0166 17.085ZM26.4483 8.51416H22.4666V5.23916C22.5566 5.23166 22.6449 5.21749 22.7333 5.21749C23.4916 5.21583 24.2499 5.21333 25.0083 5.21749C25.9091 5.22249 26.4441 5.75666 26.4474 6.65083C26.4499 7.26416 26.4483 7.87666 26.4483 8.51416Z" fill="#FF782D"/>
<path d="M25.5832 14.695C23.5474 18.2225 21.5224 21.7308 19.4857 25.2592C20.6557 25.9342 21.7916 26.59 22.9457 27.2558C24.9866 23.7208 27.0116 20.2125 29.0432 16.6917C27.8699 16.0142 26.7399 15.3625 25.5832 14.695ZM25.7349 19.73C25.5432 20.0408 25.1607 20.1 24.8557 19.9158C24.5674 19.7408 24.4374 19.3825 24.6032 19.0758C24.9382 18.455 25.2891 17.8417 25.6666 17.2458C25.7641 17.0925 25.9841 17.0158 26.1482 16.9042C26.6757 16.9542 27.0216 17.455 26.7924 17.8975C26.4674 18.5233 26.1057 19.1308 25.7349 19.73Z" fill="#FF782D"/>
<path d="M28.4441 24.4116C28.4374 26.385 27.0299 27.8083 25.0599 27.8375C24.7807 27.8408 24.5016 27.8375 24.1449 27.8375C24.5391 27.155 24.8982 26.5266 25.2674 25.905C25.3024 25.8466 25.3999 25.8166 25.4741 25.79C26.1182 25.5633 26.4624 25.1133 26.4399 24.4308C26.4266 24.0183 26.5332 23.6716 26.7441 23.3216C27.3041 22.3908 27.8366 21.4425 28.4216 20.4291C28.4324 20.595 28.4441 20.6808 28.4441 20.7666C28.4449 21.9816 28.4474 23.1966 28.4441 24.4116Z" fill="#FF782D"/>
<path d="M30.2957 14.51C30.1232 14.8508 29.9182 15.175 29.7099 15.5383C28.5407 14.8642 27.4041 14.2083 26.2466 13.5408C26.4707 13.1608 26.6599 12.7908 26.8941 12.4533C27.2641 11.9208 27.9741 11.7567 28.5583 12.0617C28.9899 12.2867 29.4124 12.5308 29.8233 12.7917C30.4158 13.1667 30.6124 13.8858 30.2957 14.51Z" fill="#FF782D"/>
<path d="M22.1966 28.3633C22.0008 28.5067 21.8533 28.6375 21.6858 28.7333C21.0916 29.0733 20.4949 29.4092 19.8916 29.7325C19.4391 29.9758 18.9208 29.7633 18.8924 29.2833C18.8433 28.435 18.8633 27.5825 18.8583 26.7308C18.8583 26.6617 18.8924 26.5908 18.9233 26.4733C20.0233 27.1083 21.0874 27.7233 22.1966 28.3633Z" fill="#FF782D"/>
</svg>
